User Type,Username,Date,Text
,Nimh,2013-03-07T06:05Z,"The heartwarming adventure of a robot who keeps promises.

m: 8/10"
,pedaut,2013-03-16T21:26Z,"@libertycity: You've got to be totally ignorant to judge YIFY's torrents to be crap solely basing on a bitrate.
Shame on you.

FYI: YIFY's releases are the best ones in the internetz."
,breakersailer,2013-03-28T01:41Z,YIFY normally I am a big fan but this one is slow as shit. But 6 Hrs on this when the 600 version you had up took 8 minutes with a lot less seeders? What up with that? 
,RBSNLA,2013-04-14T17:08Z,"V=10 A=10 M=10 Thanks!SEEDING!!!

General
Complete name                            : The.Terminator.1984.1080p.BRrip.x264.GAZ.YIFY.mp4
Format                                   : MPEG-4
Format profile                           : Base Media
Codec ID                                 : isom
File size                                : 1.60 GiB
Duration                                 : 1h 47mn
Overall bit rate mode                    : Variable
Overall bit rate                         : 2 130 Kbps
Encoded date                             : UTC 2013-03-05 01:09:54
Tagged date                              : UTC 2013-03-05 01:09:54

Video
ID                                       : 1
Format                                   : AVC
Format/Info                              : Advanced Video Codec
Format profile                           : High@L4.0
Format settings, CABAC                   : Yes
Format settings, ReFrames                : 4 frames
Codec ID                                 : avc1
Codec ID/Info                            : Advanced Video Coding
Duration                                 : 1h 47mn
Bit rate                                 : 2 032 Kbps
Maximum bit rate                         : 10.9 Mbps
Width                                    : 1 918 pixels
Height                                   : 1 038 pixels
Display aspect ratio                     : 1.85:1
Frame rate mode                          : Constant
Frame rate                               : 23.976 fps
Color space                              : YUV
Chroma subsampling                       : 4:2:0
Bit depth                                : 8 bits
Scan type                                : Progressive
Bits/(Pixel*Frame)                       : 0.043
Stream size                              : 1.52 GiB (95%)
Title                                    :  The Terminator (1984) 1080p DTS HighCode.mkv.264#trackID=1:fps=23.976@GPAC0.5.1-DEV-rev4283
Writing library                          : x264 core 129 r2245 bc13772
Encoding settings                        : cabac=1 / ref=4 / deblock=1:0:0 / analyse=0x3:0x113 / me=hex / subme=7 / psy=1 / psy_rd=1.00:0.00 / mixed_ref=1 / me_range=16 / chroma_me=1 / trellis=1 / 8x8dct=1 / cqm=0 / deadzone=21,11 / fast_pskip=1 / chroma_qp_offset=-2 / threads=6 / lookahead_threads=1 / sliced_threads=0 / nr=0 / decimate=1 / interlaced=0 / bluray_compat=0 / constrained_intra=0 / bframes=8 / b_pyramid=2 / b_adapt=1 / b_bias=0 / direct=1 / weightb=1 / open_gop=0 / weightp=2 / keyint=240 / keyint_min=23 / scenecut=40 / intra_refresh=0 / rc_lookahead=40 / rc=2pass / mbtree=1 / bitrate=2032 / ratetol=1.0 / qcomp=0.60 / qpmin=10 / qpmax=51 / qpstep=4 / cplxblur=20.0 / qblur=0.5 / ip_ratio=1.40 / aq=1:1.00
Encoded date                             : UTC 2013-03-05 01:09:54
Tagged date                              : UTC 2013-03-05 01:11:12

Audio
ID                                       : 2
Format                                   : AAC
Format/Info                              : Advanced Audio Codec
Format profile                           : LC
Codec ID                                 : 40
Duration                                 : 1h 47mn
Bit rate mode                            : Variable
Bit rate                                 : 96.0 Kbps
Maximum bit rate                         : 140 Kbps
Channel(s)                               : 2 channels
Channel positions                        : Front: L R
Sampling rate                            : 48.0 KHz
Compression mode                         : Lossy
Stream size                              : 73.6 MiB (5%)
Language                                 : English
Encoded date                             : UTC 2013-03-04 22:22:09
Tagged date                              : UTC 2013-03-05 01:11:12
"
,Fil1993,2013-05-29T23:27Z,seed please !
